<?xml version="1.0" encoding="UTF-8"?>
<svg viewBox="0 0 566.92914 566.92914" xmlns="http://www.w3.org/2000/svg" xmlns:xlink="http://www.w3.org/1999/xlink">
 <defs>
  <filter id="e">
   <feGaussianBlur stdDeviation="12.55806"/>
  </filter>
  <linearGradient id="a">
   <stop stop-color="#2e3436" offset="0"/>
   <stop stop-color="#2e3436" stop-opacity="0" offset="1"/>
  </linearGradient>
  <linearGradient id="d" x1="2087.5" x2="2131.2" y1="717.99" y2="450.8" gradientUnits="userSpaceOnUse" xlink:href="#a"/>
  <linearGradient id="c" x1="2087.5" x2="2131.2" y1="717.99" y2="450.8" gradientTransform="matrix(-1 0 0 1 4446.9 0)" gradientUnits="userSpaceOnUse" xlink:href="#a"/>
  <radialGradient id="b" cx="377.15" cy="320.94" r="307.74" gradientUnits="userSpaceOnUse">
   <stop stop-color="#fce94f" offset="0"/>
   <stop stop-color="#fce94f" stop-opacity="0" offset="1"/>
  </radialGradient>
 </defs>
 <g transform="translate(-93.681 -37.471)">
  <path transform="matrix(.68165 0 0 .68165 148.02 -679.02)" d="m376.08 1074.1c-64.119 31.797-115.24 91.312-132.31 161.32-4.7006-54.115 5.4884-109.43 29.242-158.29-53.691 47.338-87.694 118.06-86.04 190.13-18.562-51.074-22.998-107.17-12.696-160.52-39.639 59.645-54.148 136.8-33.855 206-31.174-44.545-50.007-97.601-53.869-151.84-22.842 67.845-16.897 146.09 20.56 207.68-41.603-34.944-73.504-81.284-91.258-132.64-4.4824 71.423 21.458 145.46 73.555 195.26-49.222-22.992-92.023-59.496-122.46-104.5 14.153 70.191 58.436 135 121.7 169.6-53.525-9.4519-104.33-33.664-145.4-69.272 31.807 64.149 91.367 115.28 161.42 132.32-54.149 4.7191-109.49-5.5154-158.38-29.281 47.338 53.691 118.06 87.695 190.13 86.04-51.073 18.562-107.17 23.03-160.53 12.728 59.659 39.598 136.8 54.134 206 33.856-44.543 31.173-97.604 49.977-151.83 53.838 67.84 22.829 146.09 16.922 207.68-20.528-34.945 41.603-81.285 73.505-132.64 91.258 71.423 4.4825 145.46-21.458 195.26-73.555-22.987 49.216-59.5 91.998-104.5 122.43 70.167-14.151 134.97-58.4 169.57-121.64-9.4619 53.506-33.639 104.31-69.238 145.37 64.119-31.843 115.28-91.362 132.32-161.42 4.7191 54.149-5.5154 109.49-29.281 158.38 53.688-47.329 87.671-118.04 86.037-190.09 18.552 51.054 23.003 107.12 12.702 160.46 39.636-59.62 54.15-136.75 33.881-205.94 31.159 44.527 49.987 97.559 53.844 151.77 22.836-67.844 16.915-146.1-20.559-207.68 41.617 34.951 73.527 81.305 91.286 132.67 4.4972-71.427-21.449-145.47-73.555-195.26 49.216 22.987 91.998 59.5 122.43 104.5-14.151-70.167-58.4-134.97-121.64-169.57 53.506 9.462 104.31 33.639 145.37 69.238-31.843-64.118-91.362-115.28-161.42-132.32 54.149-4.7191 109.49 5.5154 158.38 29.281-47.35-53.692-118.08-87.716-190.15-86.074 51.073-18.563 107.17-22.998 160.52-12.696-59.629-39.65-136.78-54.139-205.97-33.853 44.536-31.17 97.578-50.013 151.8-53.872-67.849-22.849-146.1-16.89-207.68 20.591 34.951-41.617 81.305-73.527 132.67-91.286-71.435-4.5043-145.48 21.466-195.26 73.586 22.986-49.226 59.495-92.024 104.5-122.46-70.177 14.148-134.98 58.418-169.57 121.67 9.4539-53.524 33.631-104.33 69.24-145.4z" fill="#f57900" filter="url(#e)" opacity=".82192"/>
  <path d="m380.05 51.76c-41.568 25.537-72.603 69.089-79.881 117.67-6.5258-36.447-3.0176-74.626 10.097-109.26-33.532 35.444-52.257 85.55-46.693 134.37-15.748-33.528-22.216-71.334-18.511-108.19-23.234 42.933-28.329 96.204-10.289 141.93-23.907-28.319-39.962-63.176-45.926-99.755-11.326 47.464-2.4684 100.22 26.755 139.72-30.396-21.159-54.908-50.651-70.125-84.418 1.3584 48.762 23.531 97.426 61.966 128.02-34.832-12.575-66.136-34.719-89.573-63.393 13.933 46.778 47.989 88.047 93.066 107.64-36.918-3.1181-72.901-16.424-102.97-38.066 25.545 41.588 69.129 72.625 117.73 79.881-36.469 6.5404-74.67 3.0031-109.32-10.118 35.444 33.532 85.55 52.257 134.37 46.693-33.528 15.748-71.331 22.238-108.19 18.532 42.94 23.205 96.203 28.319 141.93 10.289-28.317 23.907-63.18 39.942-99.755 45.905 47.46 11.317 100.21 2.4852 139.72-26.733-21.159 30.396-50.651 54.908-84.418 70.125 48.762-1.3584 97.426-23.531 128.02-61.966-12.572 34.827-34.723 66.12-63.393 89.551 46.761-13.93 88.025-47.963 107.62-93.024-3.1261 36.906-16.408 72.886-38.045 102.95 41.565-25.568 72.628-69.125 79.881-117.73 6.5404 36.469 3.0031 74.67-10.118 109.32 33.53-35.438 52.242-85.536 46.693-134.35 15.74 33.515 22.217 71.305 18.511 108.15 23.233-42.916 28.333-96.172 10.31-141.89 23.896 28.307 39.946 63.148 45.905 99.712 11.322-47.463 2.4797-100.22-26.755-139.72 30.406 21.162 54.925 50.663 70.146 84.439-1.3486-48.766-23.525-97.43-61.966-128.02 34.827 12.572 66.12 34.723 89.551 63.393-13.93-46.761-47.963-88.025-93.024-107.62 36.906 3.1261 72.886 16.408 102.95 38.044-25.568-41.565-69.125-72.628-117.73-79.881 36.469-6.5404 74.67-3.0031 109.32 10.118-35.453-33.532-85.562-52.27-134.39-46.714 33.528-15.749 71.334-22.217 108.19-18.511-42.923-23.242-96.19-28.324-141.91-10.289 28.312-23.904 63.16-39.965 99.734-45.926-47.467-11.33-100.22-2.4628-139.72 26.776 21.162-30.406 50.663-54.925 84.439-70.146-48.772 1.3443-97.435 23.537-128.02 61.987 12.571-34.834 34.718-66.137 63.393-89.573-46.769 13.929-88.031 47.975-107.62 93.045 3.1196-36.918 16.401-72.899 38.044-102.97z" fill="#fcaf3e"/>
  <path d="m380.05 51.76c-41.568 25.537-72.603 69.089-79.881 117.67-6.5258-36.447-3.0176-74.626 10.097-109.26-33.532 35.444-52.257 85.55-46.693 134.37-15.748-33.528-22.216-71.334-18.511-108.19-23.234 42.933-28.329 96.204-10.289 141.93-23.907-28.319-39.962-63.176-45.926-99.755-11.326 47.464-2.4684 100.22 26.755 139.72-30.396-21.159-54.908-50.651-70.125-84.418 1.3584 48.762 23.531 97.426 61.966 128.02-34.832-12.575-66.136-34.719-89.573-63.393 13.933 46.778 47.989 88.047 93.066 107.64-36.918-3.1181-72.901-16.424-102.97-38.066 25.545 41.588 69.129 72.625 117.73 79.881-36.469 6.5404-74.67 3.0031-109.32-10.118 35.444 33.532 85.55 52.257 134.37 46.693-33.528 15.748-71.331 22.238-108.19 18.532 42.94 23.205 96.203 28.319 141.93 10.289-28.317 23.907-63.18 39.942-99.755 45.905 47.46 11.317 100.21 2.4852 139.72-26.733-21.159 30.396-50.651 54.908-84.418 70.125 48.762-1.3584 97.426-23.531 128.02-61.966-12.572 34.827-34.723 66.12-63.393 89.551 46.761-13.93 88.025-47.963 107.62-93.024-3.1261 36.906-16.408 72.886-38.045 102.95 41.565-25.568 72.628-69.125 79.881-117.73 6.5404 36.469 3.0031 74.67-10.118 109.32 33.53-35.438 52.242-85.536 46.693-134.35 15.74 33.515 22.217 71.305 18.511 108.15 23.233-42.916 28.333-96.172 10.31-141.89 23.896 28.307 39.946 63.148 45.905 99.712 11.322-47.463 2.4797-100.22-26.755-139.72 30.406 21.162 54.925 50.663 70.146 84.439-1.3486-48.766-23.525-97.43-61.966-128.02 34.827 12.572 66.12 34.723 89.551 63.393-13.93-46.761-47.963-88.025-93.024-107.62 36.906 3.1261 72.886 16.408 102.95 38.044-25.568-41.565-69.125-72.628-117.73-79.881 36.469-6.5404 74.67-3.0031 109.32 10.118-35.453-33.532-85.562-52.27-134.39-46.714 33.528-15.749 71.334-22.217 108.19-18.511-42.923-23.242-96.19-28.324-141.91-10.289 28.312-23.904 63.16-39.965 99.734-45.926-47.467-11.33-100.22-2.4628-139.72 26.776 21.162-30.406 50.663-54.925 84.439-70.146-48.772 1.3443-97.435 23.537-128.02 61.987 12.571-34.834 34.718-66.137 63.393-89.573-46.769 13.929-88.031 47.975-107.62 93.045 3.1196-36.918 16.401-72.899 38.044-102.97z" fill="url(#b)"/>
  <path d="m467.58 239.22c-18.74 2.3967-35.821 8.1417-57.887 16.988 6.4251 4.04 36.904-6.8489 47.662-9.0213s27.13-1.833 40.899 9.5218c0.93242 0.83842 2.2498 1.0972 3.4301 0.67381s2.0328-1.4607 2.2196-2.7007-0.32235-2.4823-1.3255-3.2346c-11.514-9.4956-23.402-12.504-34.998-12.227z" fill="#ce5c00" fill-rule="evenodd" opacity=".39269"/>
  <g transform="matrix(.47253 0 0 .47253 -673.49 -6.196)">
   <path d="m2164.1 564.96c13.904 2.8836 19.827 18.03 23.887 30.121 6.9977 23.415 6.6751 48.359 4.3502 72.455-2.6894 16.926-1.6551 37.973-20.537 47.235-17.997 8.8277-146.92 16.526-214.05 3.1276-13.904-2.8836-19.827-18.03-23.887-30.121-6.9977-23.415-6.6751-48.359-4.3502-72.455 2.6894-16.926 1.5559-35.828 20.537-47.235 19.452-11.69 146.66-10.063 214.05-3.1276z" fill="url(#d)" opacity=".76712"/>
   <path d="m2282.8 564.96c-13.904 2.8836-19.827 18.03-23.887 30.121-6.9977 23.415-6.6751 48.359-4.3502 72.455 2.6894 16.926 1.6551 37.973 20.537 47.235 17.997 8.8277 146.92 16.526 214.05 3.1276 13.904-2.8836 19.827-18.03 23.887-30.121 6.9977-23.415 6.6751-48.359 4.3502-72.455-2.6894-16.926-1.5559-35.828-20.537-47.235-19.452-11.69-146.66-10.063-214.05-3.1276z" fill="url(#c)" opacity=".76712"/>
  </g>
  <path d="m348.35 274.98c15.008-13.12 42.577-13.52 57.59 0" fill="none" stroke="#555753" stroke-linecap="round" stroke-linejoin="round" stroke-width="4.7253"/>
  <path d="m467.04 386.04c-44.908 28.273-99.473 29.338-128.25 24.634s-37.547-14.977-30.451 6.0378 66.708 20.292 95.083 17.566c29.122-2.7976 61.78-19.181 63.622-48.238z" fill="#ce5c00" fill-rule="evenodd"/>
  <path d="m347.76 259.28c-41.809-19.498-61.354-10.128-94.787-7.0288 9.6155-10.277 24.93-12.246 40.609-11.946 15.64 0.29911 38.699 3.6419 54.178 18.975z" fill="#ce5c00" fill-rule="evenodd" opacity=".39269"/>
  <path d="m462.48 382.75c2.932-0.15337 5.2798-2.1553 8.4408-1.7135 4.0183 2.049-1.4673 9.6951 4.4859 8.8745 2.3939-2.831 1.8017-6.8059-0.36884-10.761s-10.23-0.52077-12.558 3.6003z" fill="#ce5c00" fill-rule="evenodd" opacity=".21461"/>
 </g>
</svg>
